/* XPM */
static char * add_xpm[] = {
"16 16 154 2",
"  	c None",
". 	c #7BB96E",
"+ 	c #47AF34",
"@ 	c #48C136",
"# 	c #4ABA3E",
"$ 	c #73C36E",
"% 	c #62A757",
"& 	c #54C140",
"* 	c #4FCD3B",
"= 	c #5ACE49",
"- 	c #85D97B",
"; 	c #C7E4C6",
"> 	c #52A24D",
", 	c #57D043",
"' 	c #48CF2D",
") 	c #66DE49",
"! 	c #85DD6F",
"~ 	c #C2E3B8",
"{ 	c #4A9C47",
"] 	c #5ED249",
"^ 	c #6AE849",
"/ 	c #68DA44",
"( 	c #9FF381",
"_ 	c #B8DFAA",
": 	c #71B96D",
"< 	c #6DCC54",
"[ 	c #74DB4E",
"} 	c #8DEB63",
"| 	c #A6F285",
"1 	c #C0EEAE",
"2 	c #86B96E",
"3 	c #72AC5F",
"4 	c #569F4E",
"5 	c #519E50",
"6 	c #6AB268",
"7 	c #76C06B",
"8 	c #85DA65",
"9 	c #8DE763",
"0 	c #94EB68",
"a 	c #A0F17B",
"b 	c #82C870",
"c 	c #7FC378",
"d 	c #77C476",
"e 	c #78C275",
"f 	c #87C57C",
"g 	c #50AD38",
"h 	c #5BBF45",
"i 	c #5BCB4B",
"j 	c #62D053",
"k 	c #77D366",
"l 	c #89DD6E",
"m 	c #96EA70",
"n 	c #98EF6A",
"o 	c #9AFB6E",
"p 	c #8FF76C",
"q 	c #84F370",
"r 	c #77EE6C",
"s 	c #5EDE56",
"t 	c #54CB4B",
"u 	c #62BE51",
"v 	c #83D16C",
"w 	c #53C33D",
"x 	c #56CC42",
"y 	c #55D540",
"z 	c #69E553",
"A 	c #83E868",
"B 	c #86E064",
"C 	c #97F16D",
"D 	c #96F76A",
"E 	c #82F059",
"F 	c #6EEA4E",
"G 	c #57DE43",
"H 	c #37C72A",
"I 	c #30C523",
"J 	c #2DB620",
"K 	c #42A72D",
"L 	c #78CE61",
"M 	c #53BF45",
"N 	c #61D04E",
"O 	c #68DE52",
"P 	c #76E85C",
"Q 	c #82E362",
"R 	c #8BE866",
"S 	c #80E758",
"T 	c #75E64C",
"U 	c #61E03B",
"V 	c #56DD38",
"W 	c #3FCA29",
"X 	c #30BD20",
"Y 	c #25B215",
"Z 	c #27A617",
"` 	c #359623",
" .	c #7FD16D",
"..	c #7ECD72",
"+.	c #97EB89",
"@.	c #90E97D",
"#.	c #A0FA89",
"$.	c #94E678",
"%.	c #93EF73",
"&.	c #73E54F",
"*.	c #59DC36",
"=.	c #4FD92C",
"-.	c #4CD52F",
";.	c #50CA39",
">.	c #51C23E",
",.	c #4AB73A",
"'.	c #4FB142",
").	c #5DA853",
"!.	c #9BDD93",
"~.	c #D1EDC5",
"{.	c #C8E9BE",
"].	c #BFE7B3",
"^.	c #B9E9AB",
"/.	c #B9F3A9",
"(.	c #70C35B",
"_.	c #61DE46",
":.	c #4DE02F",
"<.	c #3ECE1E",
"[.	c #54D137",
"}.	c #90E377",
"|.	c #B6F0A3",
"1.	c #B8ECAC",
"2.	c #BDECB8",
"3.	c #BEE8C0",
"4.	c #E3FFE8",
"5.	c #60B456",
"6.	c #4CD137",
"7.	c #36D11B",
"8.	c #26BB09",
"9.	c #4DC331",
"0.	c #B3F0A0",
"a.	c #62BB5D",
"b.	c #36C223",
"c.	c #1DBD03",
"d.	c #1FB403",
"e.	c #4ABA32",
"f.	c #BDF0AE",
"g.	c #60B65F",
"h.	c #35B625",
"i.	c #26B80F",
"j.	c #1A9D01",
"k.	c #46A935",
"l.	c #BEE9BB",
"m.	c #6DB36B",
"n.	c #3FA22E",
"o.	c #34A21F",
"p.	c #329521",
"q.	c #5AA553",
"r.	c #C5E8D0",
"s.	c #7ED36E",
"t.	c #7BD768",
"u.	c #7ECF70",
"v.	c #96D797",
"w.	c #E8FFF9",
"          . + @ # $             ",
"          % & * = - ;           ",
"          > , ' ) ! ~           ",
"          { ] ^ / ( _           ",
"          : < [ } | 1           ",
"2 3 4 5 6 7 8 9 0 a b c d e f   ",
"g h i j k l m n o p q r s t u v ",
"w x y z A B C D E F G H I J K L ",
"M N O P Q R S T U V W X Y Z `  .",
"..+.@.#.$.%.&.*.=.-.;.>.,.'.).!.",
"~.{.].^./.(._.:.<.[.}.|.1.2.3.4.",
"          5.6.7.8.9.0.          ",
"          a.b.c.d.e.f.          ",
"          g.h.i.j.k.l.          ",
"          m.n.o.p.q.r.          ",
"            s.t.u.v.w.          "};
