/* XPM */
static char * build_xpm[] = {
"16 16 151 2",
"  	c None",
". 	c #CDA51C",
"+ 	c #D7B24B",
"@ 	c #DBB749",
"# 	c #E6C35F",
"$ 	c #F3E5BD",
"% 	c #E7B12E",
"& 	c #EDAC39",
"* 	c #EDD9A4",
"= 	c #BF950A",
"- 	c #D5BE81",
"; 	c #F0C672",
"> 	c #F3C76C",
", 	c #F3D78B",
"' 	c #F3D98E",
") 	c #F3C887",
"! 	c #ECB879",
"~ 	c #DAA52A",
"{ 	c #DEC77E",
"] 	c #DEB450",
"^ 	c #F1C77F",
"/ 	c #F4C183",
"( 	c #F3D391",
"_ 	c #9D8A59",
": 	c #BE9520",
"< 	c #C39314",
"[ 	c #E1B953",
"} 	c #F3B071",
"| 	c #E8B439",
"1 	c #DBAD34",
"2 	c #BCA153",
"3 	c #D6A126",
"4 	c #F3BB74",
"5 	c #F3C190",
"6 	c #A67514",
"7 	c #60501C",
"8 	c #DBD3B8",
"9 	c #D7C597",
"0 	c #BA900F",
"a 	c #E6B75F",
"b 	c #F3B279",
"c 	c #D5A020",
"d 	c #A58643",
"e 	c #F8D29F",
"f 	c #F3B378",
"g 	c #DDAB51",
"h 	c #665D2F",
"i 	c #F3E9CE",
"j 	c #E1B046",
"k 	c #F3B847",
"l 	c #E7A62A",
"m 	c #DCB549",
"n 	c #F3AA4C",
"o 	c #F3B46B",
"p 	c #917935",
"q 	c #E8E3D5",
"r 	c #E2BB67",
"s 	c #F3AD53",
"t 	c #F3AC33",
"u 	c #C38400",
"v 	c #B4976B",
"w 	c #E0B95E",
"x 	c #F3B450",
"y 	c #F3B86B",
"z 	c #9A7F3F",
"A 	c #DDD7C2",
"B 	c #E2BC6A",
"C 	c #F3B259",
"D 	c #F3AB31",
"E 	c #C89C26",
"F 	c #BDA376",
"G 	c #F4DDB0",
"H 	c #F3B467",
"I 	c #F0AC5E",
"J 	c #836F4C",
"K 	c #F0E1C0",
"L 	c #D69F3F",
"M 	c #F3B754",
"N 	c #F3B91E",
"O 	c #DCD6BF",
"P 	c #D09B23",
"Q 	c #F0B051",
"R 	c #F3B46C",
"S 	c #EEBD62",
"T 	c #9F8A59",
"U 	c #A28D6B",
"V 	c #E8C67F",
"W 	c #CD981B",
"X 	c #F3BB19",
"Y 	c #F3BA27",
"Z 	c #CA9407",
"` 	c #A67A1A",
" .	c #E7E0D5",
"..	c #CBAB5C",
"+.	c #E0B259",
"@.	c #F39E51",
"#.	c #F3B165",
"$.	c #F3B254",
"%.	c #F3B746",
"&.	c #F3BA38",
"*.	c #F3C725",
"=.	c #F3D911",
"-.	c #E1AB04",
";.	c #876A14",
">.	c #D8A24C",
",.	c #C49313",
"'.	c #B09256",
").	c #DBD0BF",
"!.	c #CC9828",
"~.	c #E4AB22",
"{.	c #E6AB01",
"].	c #F3D31C",
"^.	c #F3D80B",
"/.	c #C18D00",
"(.	c #D59400",
"_.	c #756502",
":.	c #CFAE75",
"<.	c #B49324",
"[.	c #CFA046",
"}.	c #C69807",
"|.	c #A67F27",
"1.	c #C5A35A",
"2.	c #EADAB7",
"3.	c #BF8500",
"4.	c #A56E13",
"5.	c #D7C9B0",
"6.	c #8E6007",
"7.	c #D1A149",
"8.	c #A48219",
"9.	c #FFFFFF",
"0.	c #C9A863",
"a.	c #C6900F",
"b.	c #B89D62",
"c.	c #AF9060",
"d.	c #B79E7F",
"e.	c #E2D9CE",
"f.	c #E3A139",
"g.	c #C69839",
"h.	c #E4C179",
"i.	c #E3AF57",
"j.	c #BA8C09",
"k.	c #DBD3CA",
"l.	c #B79127",
"m.	c #DFA131",
"n.	c #E1AB2E",
"o.	c #B9850F",
"p.	c #AD8B36",
"q.	c #D3C6B0",
"r.	c #CBBFB2",
"s.	c #A68431",
"t.	c #CBBDAC",
"            . +                 ",
"      @ # $ % & * = -           ",
"      ; > , ' ) ! ~ {           ",
"  ] ^ / ( _ : < [ } | 1 2       ",
"  3 4 5 6 7 8 9 0 a b c d       ",
"  e f g h       i j k l         ",
"m n o p q         r s t u v     ",
"w x y z A         B C D E F     ",
"  G H I J       K L M N O       ",
"  P Q R S T U V W X Y Z `    .  ",
"  ..+.@.#.$.%.&.*.=.-.;.>.,.'.).",
"      !.~.{.].^./.(._.:.<.[.}.  ",
"      |.1.2.3.4.5.6.7.8.9.0.a.b.",
"            c.d.  e.f.g.h.i.j.  ",
"                  k.l.m.n.o.p.q.",
"                    r.  s.  t.  "};
