/* XPM */
static char * c_xpm[] = {
"16 16 88 1",
" 	c None",
".	c #B28A30",
"+	c #AF8831",
"@	c #F9FAFC",
"#	c #D4B269",
"$	c #AC8732",
"%	c #DABD7C",
"&	c #D5B269",
"*	c #A88633",
"=	c #F7F9FC",
"-	c #E0C88F",
";	c #D4B268",
">	c #A98533",
",	c #A48334",
"'	c #F5F7FB",
")	c #F5F8FB",
"!	c #F6F8FB",
"~	c #A58434",
"{	c #9F8235",
"]	c #F3F6FB",
"^	c #F3F5FB",
"/	c #A08235",
"(	c #9C7F35",
"_	c #F0F3FB",
":	c #F0F4FA",
"<	c #DADDFB",
"[	c #4849FD",
"}	c #0808FE",
"|	c #2324FE",
"1	c #BFC2FB",
"2	c #EFF4FB",
"3	c #9C7F36",
"4	c #977D37",
"5	c #ECF2FA",
"6	c #ECF1FA",
"7	c #4C4DFD",
"8	c #6D6FFC",
"9	c #E3E8F9",
"0	c #9A9DFB",
"a	c #3132FD",
"b	c #EDF2F9",
"c	c #EDF2FA",
"d	c #967C37",
"e	c #927B38",
"f	c #E9EFF9",
"g	c #E9F0F9",
"h	c #0B0BFE",
"i	c #DCE2F9",
"j	c #EAF0F9",
"k	c #937B39",
"l	c #8E7739",
"m	c #E6EEF8",
"n	c #E6EDF9",
"o	c #0C0DFE",
"p	c #DADFF8",
"q	c #E4EAF8",
"r	c #BDC3FA",
"s	c #E7EDF8",
"t	c #8D7739",
"u	c #88763B",
"v	c #E3EBF8",
"w	c #494CFC",
"x	c #6E72FC",
"y	c #DAE2F8",
"z	c #8185FB",
"A	c #3234FD",
"B	c #E3ECF8",
"C	c #E3EBF9",
"D	c #89763B",
"E	c #85733C",
"F	c #E1E9F8",
"G	c #E0EAF8",
"H	c #C8CFF8",
"I	c #3739FD",
"J	c #0606FE",
"K	c #2527FD",
"L	c #BBC3F9",
"M	c #E1EAF7",
"N	c #84743C",
"O	c #81713C",
"P	c #DFE8F7",
"Q	c #DEE8F7",
"R	c #82713C",
"S	c #7F703D",
"T	c #7B6F3E",
"U	c #7C703E",
"V	c #7B703E",
"W	c #7C6F3E",
"                ",
"   ........     ",
"   +@@@@@@#.    ",
"   $@@@@@@%&.   ",
"   *======-%;>  ",
"   ,')!')!)!)~  ",
"   {]^^]^^^^]/  ",
"   (_:<[}|1_23  ",
"   4567890abcd  ",
"   efghijggjgk  ",
"   lmnopmqrmst  ",
"   uvvwxyzABCD  ",
"   EFGHIJKLFMN  ",
"   OPPQQQQPQQR  ",
"   STUUVUVUWWS  ",
"                "};
