/* XPM */
static char * cpp_xpm[] = {
"16 16 80 1",
" 	c None",
".	c #B28A30",
"+	c #AF8831",
"@	c #F9FAFC",
"#	c #D4B269",
"$	c #AC8732",
"%	c #DABD7C",
"&	c #D5B269",
"*	c #A88633",
"=	c #F7F9FC",
"-	c #E0C88F",
";	c #D4B268",
">	c #A98533",
",	c #A48334",
"'	c #F5F7FB",
")	c #F5F8FB",
"!	c #F6F8FB",
"~	c #A58434",
"{	c #9F8235",
"]	c #F3F6FB",
"^	c #F3F5FB",
"/	c #A08235",
"(	c #9C7F35",
"_	c #F0F3FB",
":	c #B5B8FB",
"<	c #2020FE",
"[	c #0F10FE",
"}	c #9C9EFC",
"|	c #EFF4FB",
"1	c #F0F4FA",
"2	c #9C7F36",
"3	c #977D37",
"4	c #ECF2FA",
"5	c #2525FE",
"6	c #A8ABFA",
"7	c #C1C5FA",
"8	c #5557FC",
"9	c #EDF2FA",
"0	c #ECF1FA",
"a	c #0000FF",
"b	c #967C37",
"c	c #927B38",
"d	c #E9EFF9",
"e	c #0404FE",
"f	c #E6ECF9",
"g	c #E9F0F9",
"h	c #EAF0F9",
"i	c #937B39",
"j	c #8E7739",
"k	c #E6EEF8",
"l	c #2627FD",
"m	c #A5AAF9",
"n	c #B2B7F9",
"o	c #3537FD",
"p	c #E7EDF8",
"q	c #E6EDF9",
"r	c #8D7739",
"s	c #88763B",
"t	c #E3EBF8",
"u	c #A6ACF9",
"v	c #1818FE",
"w	c #1112FE",
"x	c #9EA4FA",
"y	c #E3EBF9",
"z	c #E3ECF8",
"A	c #89763B",
"B	c #85733C",
"C	c #E1E9F8",
"D	c #E0EAF8",
"E	c #E1EAF7",
"F	c #84743C",
"G	c #81713C",
"H	c #DFE8F7",
"I	c #DEE8F7",
"J	c #82713C",
"K	c #7F703D",
"L	c #7B6F3E",
"M	c #7C703E",
"N	c #7B703E",
"O	c #7C6F3E",
"                ",
"   ........     ",
"   +@@@@@@#.    ",
"   $@@@@@@%&.   ",
"   *======-%;>  ",
"   ,')!')!)!)~  ",
"   {]^^]^^^^]/  ",
"   (_:<[}|1_|2  ",
"   34567890a9b  ",
"   cdefghgaaai  ",
"   jklmnopqapr  ",
"   stuvwxytzyA  ",
"   BCDCECEDCEF  ",
"   GHHIIIIHIIJ  ",
"   KLMMNMNMOOK  ",
"                "};
