/* XPM */
static char * exit_xpm[] = {
"16 16 175 2",
"  	c None",
". 	c #E7DBC5",
"+ 	c #AF884A",
"@ 	c #BFA177",
"# 	c #CDB693",
"$ 	c #DDD0B7",
"% 	c #EBE5DA",
"& 	c #ECE1D1",
"* 	c #966316",
"= 	c #9E6F28",
"- 	c #905B0A",
"; 	c #EA9F32",
"> 	c #DDB465",
", 	c #D59F42",
"' 	c #CA8823",
") 	c #BC760B",
"! 	c #B36B00",
"~ 	c #AC6B06",
"{ 	c #9E620A",
"] 	c #E5D3B6",
"^ 	c #5A2C00",
"/ 	c #4F2C0F",
"( 	c #673A00",
"_ 	c #E6B560",
": 	c #E7F8FF",
"< 	c #F0EFFF",
"[ 	c #EDFFFF",
"} 	c #E8FFFF",
"| 	c #E7FFFF",
"1 	c #F8CD80",
"2 	c #C87E0D",
"3 	c #ECDEC5",
"4 	c #6A3700",
"5 	c #573414",
"6 	c #653901",
"7 	c #E2BE5F",
"8 	c #ED5D6E",
"9 	c #F88E91",
"0 	c #F4575C",
"a 	c #F67478",
"b 	c #FA767D",
"c 	c #BCB2BA",
"d 	c #BB7B0D",
"e 	c #DFEFDE",
"f 	c #F6EEDE",
"g 	c #6E3700",
"h 	c #583314",
"i 	c #613704",
"j 	c #DCB654",
"k 	c #EC6474",
"l 	c #FED1D3",
"m 	c #EF1F25",
"n 	c #FBBDC0",
"o 	c #FECACC",
"p 	c #F4A6B5",
"q 	c #B07815",
"r 	c #BADDBA",
"s 	c #4D9C4D",
"t 	c #544E00",
"u 	c #4F2A0C",
"v 	c #633408",
"w 	c #D89C37",
"x 	c #DCCBE6",
"y 	c #E69DAD",
"z 	c #EAE8F7",
"A 	c #E7919C",
"B 	c #F1C9D5",
"C 	c #E8DCEC",
"D 	c #AB700B",
"E 	c #009A00",
"F 	c #32A729",
"G 	c #8ABD84",
"H 	c #468418",
"I 	c #59BC53",
"J 	c #412E00",
"K 	c #D88E29",
"L 	c #EAA73A",
"M 	c #EDBB53",
"N 	c #E7AE4A",
"O 	c #E3B353",
"P 	c #E5B75E",
"Q 	c #E7B052",
"R 	c #A7680A",
"S 	c #64AF63",
"T 	c #23B80E",
"U 	c #50C93A",
"V 	c #78D766",
"W 	c #98E181",
"X 	c #7CCF6E",
"Y 	c #C87B19",
"Z 	c #E09E3F",
"` 	c #DBA044",
" .	c #EFAF45",
"..	c #E6A63C",
"+.	c #E9AC43",
"@.	c #EAA339",
"#.	c #A06811",
"$.	c #78B079",
"%.	c #2D9622",
"&.	c #58BF4A",
"*.	c #8DE87C",
"=.	c #205414",
"-.	c #C1720F",
";.	c #D3A366",
">.	c #D3A771",
",.	c #BE8429",
"'.	c #E5A43D",
").	c #E4A43E",
"!.	c #E7A237",
"~.	c #976414",
"{.	c #43791A",
"].	c #1C3A06",
"^.	c #58250C",
"/.	c #BA7A15",
"(.	c #B56611",
"_.	c #B4620A",
":.	c #A47328",
"<.	c #E5A237",
"[.	c #E1A139",
"}.	c #E49C30",
"|.	c #976215",
"1.	c #A3702A",
"2.	c #55280C",
"3.	c #583411",
"4.	c #B57611",
"5.	c #D29033",
"6.	c #A07026",
"7.	c #E69E38",
"8.	c #DE9731",
"9.	c #DE9933",
"0.	c #E3982C",
"a.	c #91631C",
"b.	c #AE843C",
"c.	c #542E0C",
"d.	c #563311",
"e.	c #AA6B0D",
"f.	c #E59933",
"g.	c #E1992E",
"h.	c #DD9830",
"i.	c #DB932C",
"j.	c #DA942B",
"k.	c #DE9026",
"l.	c #916724",
"m.	c #BE9653",
"n.	c #532D08",
"o.	c #553213",
"p.	c #A2620B",
"q.	c #DF942D",
"r.	c #D8902A",
"s.	c #D9922B",
"t.	c #D79029",
"u.	c #D8922A",
"v.	c #DA8B20",
"w.	c #936B2E",
"x.	c #C39F62",
"y.	c #522500",
"z.	c #522B01",
"A.	c #985D04",
"B.	c #DC8C28",
"C.	c #D98B29",
"D.	c #D78923",
"E.	c #D78722",
"F.	c #D2801D",
"G.	c #CF770E",
"H.	c #916C34",
"I.	c #CBAB77",
"J.	c #D3B88B",
"K.	c #A1640A",
"L.	c #A85B00",
"M.	c #A25D00",
"N.	c #925100",
"O.	c #885200",
"P.	c #865704",
"Q.	c #815914",
"R.	c #A0927B",
"                                ",
"            . + @ # $ %         ",
"      & * = - ; > , ' ) ! ~ {   ",
"      ] ^ / ( _ : < [ } | 1 2   ",
"      3 4 5 6 7 8 9 0 a b c d   ",
"e     f g h i j k l m n o p q   ",
"r s     t u v w x y z A B C D   ",
"  E F G H I J K L M N O P Q R   ",
"  S T U V W X Y Z `  ...+.@.#.  ",
"    $.%.&.*.=.-.;.>.,.'.).!.~.  ",
"        {.].^./.(._.:.<.[.}.|.  ",
"        1.2.3.4.5.6.7.8.9.0.a.  ",
"        b.c.d.e.f.g.h.i.j.k.l.  ",
"        m.n.o.p.q.r.s.t.u.v.w.  ",
"        x.y.z.A.B.C.D.E.F.G.H.  ",
"          I.J.K.L.M.N.O.P.Q.R.  "};
