/* XPM */
static char * folder_xpm[] = {
"16 16 54 1",
" 	c None",
".	c #0648D7",
"+	c #FFFFFF",
"@	c #9AC9FC",
"#	c #9CCBFC",
"$	c #A1CDFC",
"%	c #A4CFFC",
"&	c #97C8FC",
"*	c #479DFA",
"=	c #50A2F9",
"-	c #5AA7FA",
";	c #65ADFA",
">	c #B8DAFD",
",	c #BEDDFD",
"'	c #C5E1FD",
")	c #D3E8FE",
"!	c #DAEBFE",
"~	c #B3D1F8",
"{	c #00039A",
"]	c #479DF9",
"^	c #70B3FB",
"/	c #7DBBFB",
"(	c #8BC2FB",
"_	c #A7D1FC",
":	c #B5D7FC",
"<	c #67A3F0",
"[	c #479EF9",
"}	c #4FA2FA",
"|	c #67A2F0",
"1	c #C9E2FA",
"2	c #B6D9F9",
"3	c #A3CEF7",
"4	c #90C4F6",
"5	c #7CBAF4",
"6	c #6AB0F2",
"7	c #DAEBFC",
"8	c #C9E2FB",
"9	c #B7D9F9",
"0	c #A3CFF7",
"a	c #8FC4F5",
"b	c #6AB1F3",
"c	c #59A7F1",
"d	c #4A9FF0",
"e	c #3D99EF",
"f	c #3494EE",
"g	c #E9F4FD",
"h	c #DAECFB",
"i	c #C9E3FB",
"j	c #B6D9F8",
"k	c #90C5F6",
"l	c #7DBBF5",
"m	c #3D99EE",
"n	c #F6F5F6",
"o	c #BEBEBE",
"                ",
"                ",
"                ",
" .....          ",
".+@#$%.......   ",
".&*=-;>,,')!~{  ",
".&]=-;^//(_:<{  ",
".&[}-;......|{  ",
".&[}-.123456....",
".&[}.7890a5bcdef",
".&[.ghij0klbcdm{",
".&.nnnnnnnnnnn{ ",
"..ooooooooooo{  ",
" {{{{{{{{{{{{   ",
"                ",
"                "};
