/* XPM */
static char * h_xpm[] = {
"16 16 63 1",
" 	c None",
".	c #B28A30",
"+	c #AF8831",
"@	c #F9FAFC",
"#	c #D4B269",
"$	c #AC8732",
"%	c #DABD7C",
"&	c #D5B269",
"*	c #A88633",
"=	c #F7F9FC",
"-	c #E0C88F",
";	c #D4B268",
">	c #A98533",
",	c #A48334",
"'	c #F5F7FB",
")	c #F5F8FB",
"!	c #F6F8FB",
"~	c #A58434",
"{	c #9F8235",
"]	c #F3F6FB",
"^	c #F3F5FB",
"/	c #0000FF",
"(	c #A08235",
"_	c #9C7F35",
":	c #F0F3FB",
"<	c #F0F4FA",
"[	c #EFF4FB",
"}	c #9C7F36",
"|	c #977D37",
"1	c #ECF2FA",
"2	c #ECF1FA",
"3	c #EDF2F9",
"4	c #EDF2FA",
"5	c #967C37",
"6	c #927B38",
"7	c #E9EFF9",
"8	c #E9F0F9",
"9	c #EAF0F9",
"0	c #937B39",
"a	c #8E7739",
"b	c #E6EEF8",
"c	c #E6EDF9",
"d	c #E7EDF8",
"e	c #8D7739",
"f	c #88763B",
"g	c #E3EBF8",
"h	c #E3EBF9",
"i	c #E3ECF8",
"j	c #89763B",
"k	c #85733C",
"l	c #E1E9F8",
"m	c #E0EAF8",
"n	c #E1EAF7",
"o	c #84743C",
"p	c #81713C",
"q	c #DFE8F7",
"r	c #DEE8F7",
"s	c #82713C",
"t	c #7F703D",
"u	c #7B6F3E",
"v	c #7C703E",
"w	c #7B703E",
"x	c #7C6F3E",
"                ",
"   ........     ",
"   +@@@@@@#.    ",
"   $@@@@@@%&.   ",
"   *======-%;>  ",
"   ,')!')!)!)~  ",
"   {]^/]^/^^](  ",
"   _:</[:/<:[}  ",
"   |12////2345  ",
"   678/89/8980  ",
"   abc/db/cbde  ",
"   fgg/hi/gihj  ",
"   klmlnlnmlno  ",
"   pqqrrrrqrrs  ",
"   tuvvwvwvxxt  ",
"                "};
