/* XPM */
static char * new_xpm[] = {
"16 16 27 1",
" 	c None",
".	c #CECECE",
"+	c #DEDEDE",
"@	c #FFFFFF",
"#	c #C6C6C6",
"$	c #F7F7F7",
"%	c #EFEFEF",
"&	c #E7E7E7",
"*	c #B5C6A5",
"=	c #739C5A",
"-	c #7B946B",
";	c #8CA57B",
">	c #84AD63",
",	c #B5D694",
"'	c #D6E7BD",
")	c #8CBD6B",
"!	c #528C29",
"~	c #94AD84",
"{	c #B5D68C",
"]	c #8CBD63",
"^	c #396B21",
"/	c #4A7B31",
"(	c #B5D69C",
"_	c #396B18",
":	c #397321",
"<	c #84BD5A",
"[	c #84A573",
"  .........+    ",
" .@@@@@@@@@#+   ",
" .@$$$$$%%@&#+  ",
" .@$@$$$$%@$$#+ ",
" .@@@@$$$%@@@@. ",
" .@@@@@@$$%%&@. ",
" .@@@@@@@$$%%@. ",
" .@@@@@@@@$$$@. ",
" .@@@@@@@@@$$@. ",
" .@@@@@@@@*=--; ",
" .@@@@@@@*>,')!~",
" .@@@@@@@-{,@]]^",
" .@@@@@@@/(@@@,_",
" .@@@@@@@:]<@<]^",
" .@@@@@@@~!],]!~",
"  ........-^_^[ "};
