/* XPM */
static char * o_xpm[] = {
"16 16 65 1",
" 	c None",
".	c #BFB688",
"+	c #F9FAFC",
"@	c #D4B269",
"#	c #F8F9FC",
"$	c #F7F9FC",
"%	c #F8F9FB",
"&	c #F8FAFC",
"*	c #DABD7C",
"=	c #D5B269",
"-	c #BCB489",
";	c #F6F8FC",
">	c #91A5C7",
",	c #8A9EC2",
"'	c #8095BB",
")	c #748AB3",
"!	c #6A80AB",
"~	c #F6F8FB",
"{	c #E0C88F",
"]	c #D4B268",
"^	c #BCB58A",
"/	c #B9B38C",
"(	c #F3F6FB",
"_	c #F4F7FB",
":	c #F4F6FC",
"<	c #F4F6FB",
"[	c #F5F7FC",
"}	c #BAB28C",
"|	c #B5B08F",
"1	c #F2F5FB",
"2	c #8DA2C4",
"3	c #879CC0",
"4	c #8196BB",
"5	c #7A8FB7",
"6	c #7389B2",
"7	c #6D83AD",
"8	c #677DA9",
"9	c #B1AD91",
"0	c #EFF3FA",
"a	c #B0AD92",
"b	c #ABAA95",
"c	c #ECF2FA",
"d	c #A6A899",
"e	c #EAF0F9",
"f	c #AFB7C9",
"g	c #17325D",
"h	c #919EB5",
"i	c #C8CEDD",
"j	c #A1A49C",
"k	c #E7EFF8",
"l	c #979EA3",
"m	c #E5EDF9",
"n	c #919BA7",
"o	c #E2ECF7",
"p	c #8D98A9",
"q	c #E0EAF8",
"r	c #8996AC",
"s	c #DEE8F7",
"t	c #DEE8F8",
"u	c #B2BDCF",
"v	c #8593AE",
"w	c #8693AE",
"x	c #8694AE",
"y	c #8594AE",
"z	c #8594AF",
"  .........     ",
"  .+++++++@.    ",
"  .##$%%&$*=.   ",
"  -;>,')!~{*]^  ",
"  /(___:_<[__}  ",
"  |1>23456781|  ",
"  90000000000a  ",
"  bccccccccccb  ",
"  defghehgiefgh ",
"  jkgigkigikgig ",
"  lmgigmigimgig ",
"  nogigoigiogig ",
"  pqhghqigiqhgh ",
"  rssssssssstu  ",
"  vwvxxyxzxwwy  ",
"                "};
