/* XPM */
static char * open_xpm[] = {
"16 16 146 2",
"  	c None",
". 	c #EECD2B",
"+ 	c #F3D01E",
"@ 	c #F5D323",
"# 	c #F4DB64",
"$ 	c #FFDA00",
"% 	c #FFDC00",
"& 	c #F6D41E",
"* 	c #EECC2C",
"= 	c #F2CE1A",
"- 	c #F6D312",
"; 	c #F9D70A",
"> 	c #FDDC03",
", 	c #FDDD00",
"' 	c #F8D409",
") 	c #FEDB00",
"! 	c #FDDA00",
"~ 	c #FFDE00",
"{ 	c #FFDF00",
"] 	c #FDD700",
"^ 	c #FBCE00",
"/ 	c #F6C101",
"( 	c #F6D20C",
"_ 	c #FFE100",
": 	c #FAD100",
"< 	c #F1AC02",
"[ 	c #EA9002",
"} 	c #E88801",
"| 	c #E68200",
"1 	c #F5D31B",
"2 	c #FEDD00",
"3 	c #F0C300",
"4 	c #E0A401",
"5 	c #DD9702",
"6 	c #DC8D02",
"7 	c #DE8502",
"8 	c #E27F00",
"9 	c #E68806",
"0 	c #E89415",
"a 	c #EAA025",
"b 	c #E9C55D",
"c 	c #F1DB88",
"d 	c #F6E08B",
"e 	c #F2DD93",
"f 	c #F0C919",
"g 	c #FDD400",
"h 	c #FCD400",
"i 	c #C57B02",
"j 	c #B95F00",
"k 	c #C26700",
"l 	c #CA6E00",
"m 	c #D37601",
"n 	c #E49F2B",
"o 	c #F6CF5F",
"p 	c #F9DA6F",
"q 	c #FCE17C",
"r 	c #FEE385",
"s 	c #FEE387",
"t 	c #FCE189",
"u 	c #EEC222",
"v 	c #FBC800",
"w 	c #ECB601",
"x 	c #B16100",
"y 	c #BD7111",
"z 	c #CF8D28",
"A 	c #E0AA43",
"B 	c #EEC560",
"C 	c #FADA66",
"D 	c #FDDB62",
"E 	c #FBDA69",
"F 	c #FCDC70",
"G 	c #FCDE79",
"H 	c #FDDF7B",
"I 	c #F4DC90",
"J 	c #ECBA29",
"K 	c #FABC00",
"L 	c #D18D01",
"M 	c #A55A09",
"N 	c #EAC351",
"O 	c #FED749",
"P 	c #FDD84E",
"Q 	c #FCD64F",
"R 	c #FBD554",
"S 	c #FBD75D",
"T 	c #FBD966",
"U 	c #FBDB6C",
"V 	c #FCDC72",
"W 	c #FADB77",
"X 	c #E8B32E",
"Y 	c #F4AB00",
"Z 	c #AF6400",
"` 	c #BA812A",
" .	c #FED53F",
"..	c #FACC34",
"+.	c #FACF41",
"@.	c #FAD249",
"#.	c #FAD452",
"$.	c #FBD65A",
"%.	c #FBD761",
"&.	c #FBD967",
"*.	c #FBDA66",
"=.	c #F4D985",
"-.	c #E6AC28",
";.	c #E59200",
">.	c #9C570A",
",.	c #E7BF48",
"'.	c #FDCE2C",
").	c #F9CC36",
"!.	c #FACF3F",
"~.	c #FAD146",
"{.	c #FAD34E",
"].	c #FAD455",
"^.	c #FBD65B",
"/.	c #FCD75F",
"(.	c #F9D662",
"_.	c #E8AE38",
":.	c #CA7100",
"<.	c #BD8D36",
"[.	c #FFD230",
"}.	c #F9C929",
"|.	c #F9CC33",
"1.	c #FACE3B",
"2.	c #FACF42",
"3.	c #FBD248",
"4.	c #FBD34D",
"5.	c #FCD552",
"6.	c #FBD450",
"7.	c #F3DA89",
"8.	c #BB6E0E",
"9.	c #EBC33A",
"0.	c #FCC81B",
"a.	c #F9C927",
"b.	c #FACB2C",
"c.	c #FBCD32",
"d.	c #FBCE3A",
"e.	c #F8CE42",
"f.	c #F4CD4D",
"g.	c #EDC954",
"h.	c #D29829",
"i.	c #FDCB16",
"j.	c #F9C517",
"k.	c #F7C726",
"l.	c #F3C736",
"m.	c #EDC64A",
"n.	c #ECC13B",
"o.	c #EEC233",
"                                ",
"    . + @                       ",
"# $ % % % & * = - ; > ,         ",
"' ) ! ! ! ) % ~ { ] ^ /         ",
"( % ! ~ _ { ! : < [ } |         ",
"1 % 2 3 4 5 6 7 8 9 0 a b c d e ",
"f g h i j k l m n o p q r s t   ",
"u v w x y z A B C D E F G H I   ",
"J K L M N O P Q R S T U V W     ",
"X Y Z `  ...+.@.#.$.%.&.*.=.    ",
"-.;.>.,.'.).!.~.{.].^./.(.      ",
"_.:.<.[.}.|.1.2.3.4.5.6.7.      ",
"  8.9.0.a.b.c.d.e.f.g.          ",
"  h.i.j.k.l.m.                  ",
"  n.o.                          ",
"                                "};
