/* XPM */
static char * opt_xpm[] = {
"16 16 67 1",
" 	c None",
".	c #A6C9F2",
"+	c #96C6F9",
"@	c #94C2F5",
"#	c #92BEF1",
"$	c #90BAED",
"%	c #8EB6E9",
"&	c #8CB2E5",
"*	c #8AAEE1",
"=	c #88AADD",
"-	c #86A6D9",
";	c #84A2D5",
">	c #8B92BB",
",	c #A9CDF6",
"'	c #D5E8FD",
")	c #FFFFFF",
"!	c #BABABA",
"~	c #265AD1",
"{	c #CEDAEE",
"]	c #B8DCFF",
"^	c #C0E0FF",
"/	c #001BA3",
"(	c #DAEDFF",
"_	c #DDEEFF",
":	c #E1F0FF",
"<	c #F9F9F9",
"[	c #7E96C9",
"}	c #8DB7F8",
"|	c #E5F2FF",
"1	c #E8F4FF",
"2	c #ECF6FF",
"3	c #7D93C6",
"4	c #54A2FF",
"5	c #959595",
"6	c #949494",
"7	c #979797",
"8	c #FAFAFA",
"9	c #7B8FC2",
"0	c #4283F8",
"a	c #FCFCFC",
"b	c #798BBE",
"c	c #FEFEFE",
"d	c #7787BA",
"e	c #7584B7",
"f	c #8F8F8F",
"g	c #8E8E8E",
"h	c #8D8D8D",
"i	c #8C8C8C",
"j	c #7380B3",
"k	c #87A9DC",
"l	c #707BAE",
"m	c #84A4D7",
"n	c #6E76A9",
"o	c #829FD2",
"p	c #F7FBFF",
"q	c #6C72A5",
"r	c #9AAFD8",
"s	c #C4C7DB",
"t	c #898EB7",
"u	c #99ADD6",
"v	c #7C92C5",
"w	c #7A8EC1",
"x	c #788ABD",
"y	c #7686B9",
"z	c #7482B5",
"A	c #727EB1",
"B	c #707AAD",
"                ",
"  .+@#$%&*=-;>  ",
" ,')))!~))))){> ",
" +)]^!//(_:::<[ ",
" @))!/}/|1222<3 ",
" #)!/}4/)567789 ",
" $!/}40/)))))ab ",
" %~/////)7777cd ",
" &))))))))))))e ",
" *)777777fghi)j ",
" k):2)))))))))l ",
" m)7777777777)n ",
" o):2p))))))))q ",
" r{<<8ac)))))st ",
"  u[vwxyzABnqt  ",
"                "};
