/* XPM */
static char * prop_xpm[] = {
"16 16 151 2",
"  	c None",
". 	c #F3F4F4",
"+ 	c #E8E9EA",
"@ 	c #F9F9FA",
"# 	c #FEFEFE",
"$ 	c #E5E6E8",
"% 	c #DADADA",
"& 	c #ECEDEF",
"* 	c #F0F1F2",
"= 	c #D8E1E8",
"- 	c #C5D2DC",
"; 	c #C1C2C3",
"> 	c #E8EAEC",
", 	c #E6E8E9",
"' 	c #E7E9EB",
") 	c #E9EBEC",
"! 	c #EBECED",
"~ 	c #E7E9ED",
"{ 	c #C7D5E1",
"] 	c #C5D8E9",
"^ 	c #A7BDCE",
"/ 	c #868A8D",
"( 	c #E1E4E6",
"_ 	c #E3E5E7",
": 	c #E4E7E8",
"< 	c #E6E8EA",
"[ 	c #E8E9EB",
"} 	c #D2DAE0",
"| 	c #C3D4E3",
"1 	c #BAD0E1",
"2 	c #95A8B7",
"3 	c #8B9195",
"4 	c #D1D1D1",
"5 	c #DDE0E3",
"6 	c #DEE1E3",
"7 	c #E0E2E5",
"8 	c #DEE2E5",
"9 	c #C6D2DD",
"0 	c #C3D7E7",
"a 	c #A9BFD0",
"b 	c #85929C",
"c 	c #9D9FA1",
"d 	c #D6D7D8",
"e 	c #EAEAEB",
"f 	c #EFF0F0",
"g 	c #DADDE0",
"h 	c #DBDEE1",
"i 	c #DDE0E2",
"j 	c #D1D8DE",
"k 	c #C2D3E1",
"l 	c #B9CEE0",
"m 	c #92A5B3",
"n 	c #848A8F",
"o 	c #BDBFC0",
"p 	c #E4E6E8",
"q 	c #E1E2E3",
"r 	c #D7D8D8",
"s 	c #BCBCBC",
"t 	c #D5D9DC",
"u 	c #D6DADD",
"v 	c #D8DCDE",
"w 	c #C5D0D9",
"x 	c #BFD2E2",
"y 	c #A3B9C9",
"z 	c #7E8B95",
"A 	c #989B9D",
"B 	c #D3D5D7",
"C 	c #E5E7E9",
"D 	c #E7E8EA",
"E 	c #AFB0B1",
"F 	c #B7B7B7",
"G 	c #D4D7DA",
"H 	c #D1D5D9",
"I 	c #D2D7DA",
"J 	c #BAC7D2",
"K 	c #AFC3D4",
"L 	c #889AA7",
"M 	c #7D8389",
"N 	c #B5B8BA",
"O 	c #DADDDF",
"P 	c #DFE1E4",
"Q 	c #DCDEE1",
"R 	c #C5C6C8",
"S 	c #CCCECF",
"T 	c #CACACA",
"U 	c #E8E8E8",
"V 	c #DBDCDD",
"W 	c #D3D5D6",
"X 	c #CED1D3",
"Y 	c #B4B5B3",
"Z 	c #98A7B2",
"` 	c #7B848B",
" .	c #9A9DA0",
"..	c #CACDD0",
"+.	c #DCDFE1",
"@.	c #BABBBC",
"#.	c #C5C5C5",
"$.	c #E2E2E2",
"%.	c #D8D8D8",
"&.	c #C0C0C0",
"*.	c #ACAFB1",
"=.	c #BBBEC0",
"-.	c #8F8D83",
";.	c #979B9D",
">.	c #C2C6C9",
",.	c #D4D8DB",
"'.	c #D7DBDE",
").	c #CED1D4",
"!.	c #C3C3C3",
"~.	c #EFEFEF",
"{.	c #EBEBEB",
"].	c #ADADAD",
"^.	c #F0F0F0",
"/.	c #A1A1A1",
"(.	c #8C8D8D",
"_.	c #B3B6B8",
":.	c #CBD0D4",
"<.	c #CED2D6",
"[.	c #CFD4D7",
"}.	c #B3B4B5",
"|.	c #EAEAEA",
"1.	c #E1E1E1",
"2.	c #E3E3E3",
"3.	c #929292",
"4.	c #999A9B",
"5.	c #C1C5C8",
"6.	c #CCD1D5",
"7.	c #BDC0C3",
"8.	c #A4A4A4",
"9.	c #F2F2F2",
"0.	c #B6B6B6",
"a.	c #D0D0D0",
"b.	c #B3B3B3",
"c.	c #E7E7E7",
"d.	c #BBBBBB",
"e.	c #8A8A8A",
"f.	c #A5A7A9",
"g.	c #C6CACE",
"h.	c #CCD0D4",
"i.	c #909192",
"j.	c #A7A7A7",
"k.	c #B1B1B1",
"l.	c #A8A8A8",
"m.	c #878787",
"n.	c #8F9090",
"o.	c #CCCCCC",
"p.	c #AEAEAE",
"q.	c #979797",
"r.	c #CDCDCD",
"s.	c #BEBEBE",
"t.	c #DBDBDB",
"          . + @ #               ",
"          $ % & * @     = - ;   ",
"        > , ' ) ! & ~ { ] ^ /   ",
"        ( _ : < [ } | 1 2 3 4   ",
"      5 6 7 ( 8 9 0 a b c d e f ",
"    _ g h i j k l m n o p q r s ",
"    t u v w x y z A B _ C D E F ",
"  G H I J K L M N O P Q R S T U ",
"V W X Y Z `  ...v g +.@.#.s $.%.",
"&.*.=.-.;.>.H ,.t '.).!.~.{.].^.",
"  /.(._.:.<.[.H I ,.}.|.^.].1.2.",
"      3.4.5.6.<.[.7.8.9.0.a.b.c.",
"        d.e.f.g.h.i.T j.F k.U   ",
"            l.m.n.o.].&.p.&.    ",
"                q.{.0.8.r.      ",
"                  s.t.          "};
