/* XPM */
static char * remove_xpm[] = {
"16 16 20 1",
" 	c None",
".	c #D9888B",
"+	c #E3D2D6",
"@	c #D14A4C",
"#	c #D03E3F",
"$	c #DC9699",
"%	c #D67C7E",
"&	c #C90C0C",
"*	c #CA1617",
"=	c #D4686A",
"-	c #DEAEB1",
";	c #D04647",
">	c #C70000",
",	c #C70404",
"'	c #CB2424",
")	c #D15152",
"!	c #DFC5C8",
"~	c #DDB4B7",
"{	c #DAA2A5",
"]	c #D99DA0",
"                ",
"                ",
"                ",
" .+             ",
" +@#$     %$    ",
"   $&*. =*-     ",
"    +;>,'+      ",
"     =>,>@      ",
"    )>=!'>*!    ",
"   =>    ;>&~   ",
"  ->%     %>&!  ",
"  ';       .>'  ",
"  ){        =>= ",
"            ~&] ",
"                ",
"                "};
