/* XPM */
static char * run_xpm[] = {
"16 16 94 2",
"  	c None",
". 	c #0A2B0E",
"+ 	c #32B134",
"@ 	c #16551A",
"# 	c #4ADD43",
"$ 	c #46CF42",
"% 	c #1B5B1D",
"& 	c #154C18",
"* 	c #49CA42",
"= 	c #47BC40",
"- 	c #4DC444",
"; 	c #3A9A37",
"> 	c #164918",
", 	c #4CC143",
"' 	c #49B240",
") 	c #4BAE41",
"! 	c #50B147",
"~ 	c #50B34D",
"{ 	c #1F5123",
"] 	c #174618",
"^ 	c #4FB745",
"/ 	c #4CAB45",
"( 	c #4EA94A",
"_ 	c #50A750",
": 	c #54A656",
"< 	c #5BAE61",
"[ 	c #448C4E",
"} 	c #18431A",
"| 	c #53B24E",
"1 	c #53A556",
"2 	c #55A35C",
"3 	c #57A261",
"4 	c #59A262",
"5 	c #60AB65",
"6 	c #5FB363",
"7 	c #235127",
"8 	c #18421E",
"9 	c #58AD5A",
"0 	c #55A25C",
"a 	c #5AA363",
"b 	c #5EA666",
"c 	c #5FA965",
"d 	c #5DAB60",
"e 	c #5DAD5E",
"f 	c #61AF60",
"g 	c #6BBD6A",
"h 	c #51A353",
"i 	c #1A4121",
"j 	c #5FAC68",
"k 	c #5CA565",
"l 	c #4EA053",
"m 	c #38993B",
"n 	c #289228",
"o 	c #1E8D1D",
"p 	c #1A8E18",
"q 	c #1C9619",
"r 	c #27B122",
"s 	c #3FB93F",
"t 	c #1C4224",
"u 	c #50A854",
"v 	c #258F26",
"w 	c #0E850E",
"x 	c #098308",
"y 	c #0A8607",
"z 	c #0B8F08",
"A 	c #0CA008",
"B 	c #10B60C",
"C 	c #096C0C",
"D 	c #0D3D12",
"E 	c #128D10",
"F 	c #0A8308",
"G 	c #0D890B",
"H 	c #0E920B",
"I 	c #0D9F0A",
"J 	c #12B90C",
"K 	c #16B014",
"L 	c #063B0B",
"M 	c #0E910A",
"N 	c #0E940B",
"O 	c #0CA009",
"P 	c #10B40B",
"Q 	c #20CC18",
"R 	c #187917",
"S 	c #07400C",
"T 	c #0DAA09",
"U 	c #0EB10A",
"V 	c #25D019",
"W 	c #36C529",
"X 	c #094E0E",
"Y 	c #28D51A",
"Z 	c #4DE635",
"` 	c #36882A",
" .	c #10350F",
"..	c #65E049",
"                                ",
"    . +                         ",
"    @ # $ %                     ",
"    & * = - ;                   ",
"    > , ' ) ! ~ {               ",
"    ] ^ / ( _ : < [             ",
"    } | _ 1 2 3 4 5 6 7         ",
"    8 9 0 a b c d e f g h       ",
"    i j k l m n o p q r s       ",
"    t u v w x y z A B C         ",
"    D E F G H I J K             ",
"    L M N O P Q R               ",
"    S T U V W                   ",
"    X Y Z `                     ",
"     ...                        ",
"                                "};
