/* XPM */
static char * save_xpm[] = {
"16 16 96 2",
"  	c None",
". 	c #6590D7",
"+ 	c #638ED6",
"@ 	c #DDE5F7",
"# 	c #E4EBF9",
"$ 	c #E0E7F8",
"% 	c #FCFCFC",
"& 	c #FAFAFA",
"* 	c #DEE6F8",
"= 	c #5F8CD5",
"- 	c #9FB9EB",
"; 	c #7697E2",
"> 	c #789BDF",
", 	c #F4F4F4",
"' 	c #E7E8E9",
") 	c #5A87D1",
"! 	c #5482CF",
"~ 	c #9BB6EA",
"{ 	c #C4D1F2",
"] 	c #6D93DD",
"^ 	c #E0E2E3",
"/ 	c #4E7DCB",
"( 	c #90AFE7",
"_ 	c #628CD9",
": 	c #DADCDD",
"< 	c #4979C8",
"[ 	c #8DACE5",
"} 	c #5783D6",
"| 	c #D3D6D7",
"1 	c #4374C5",
"2 	c #88A9E3",
"3 	c #4B7AD3",
"4 	c #EAEDF2",
"5 	c #3D6FC2",
"6 	c #84A5E3",
"7 	c #638DD9",
"8 	c #3F72D0",
"9 	c #386BBF",
"0 	c #7FA3E1",
"a 	c #3166BC",
"b 	c #7AA0DF",
"c 	c #5F76A2",
"d 	c #686A6C",
"e 	c #5C74A1",
"f 	c #6991DA",
"g 	c #2B61B9",
"h 	c #99B5E9",
"i 	c #779CDE",
"j 	c #696B6C",
"k 	c #D5D5D5",
"l 	c #DDDDDD",
"m 	c #636567",
"n 	c #638DD8",
"o 	c #255CB6",
"p 	c #729ADD",
"q 	c #646567",
"r 	c #BEBEBE",
"s 	c #4D7CD3",
"t 	c #B6B9BB",
"u 	c #5E5F61",
"v 	c #608BD7",
"w 	c #86A5E0",
"x 	c #7A9FDE",
"y 	c #6E97DB",
"z 	c #595A5C",
"A 	c #BDBDBD",
"B 	c #4B7BD2",
"C 	c #ADB1B3",
"D 	c #658FD9",
"E 	c #1E57B3",
"F 	c #3D77B8",
"G 	c #3D6CBE",
"H 	c #98B4E8",
"I 	c #7CA1E0",
"J 	c #535356",
"K 	c #497AD2",
"L 	c #A5A9AB",
"M 	c #7297DC",
"N 	c #92B0E7",
"O 	c #1751AF",
"P 	c #2D68B4",
"Q 	c #3868BC",
"R 	c #7496D7",
"S 	c #4D4E50",
"T 	c #C0C3C4",
"U 	c #9DA1A3",
"V 	c #235AB8",
"W 	c #537CC7",
"X 	c #104CAD",
"Y 	c #3F7AB8",
"Z 	c #1856AE",
"` 	c #353535",
" .	c #9FABC1",
"..	c #1950AB",
"+.	c #0647A9",
"@.	c #2866B3",
"  . . . . . . . . . . . . . .   ",
"+ @ # $ % & & & & & & & * # @ = ",
"= - ; > , ' ' ' ' ' ' , > ; - ) ",
"! ~ { ] , ^ ^ ^ ^ ^ ^ , ] { ~ ! ",
"/ ~ ( _ , : : : : : : , _ ( ~ / ",
"< ~ [ } , | | | | | | , } [ ~ < ",
"1 ~ 2 3 4 , , , , , , 4 3 2 ~ 1 ",
"5 ~ 6 7 8 8 8 8 8 8 8 8 7 6 ~ 5 ",
"9 ~ 0 0 0 0 0 0 0 0 0 0 0 0 ~ 9 ",
"a ~ b b c d d d d d d e f b ~ a ",
"g h i i j k l l l l k m n i ~ g ",
"o ~ p p q r s s t t r u v p ~ o ",
"o w x y z A B B C C A z D y ~ E ",
"F G H I J A K K L L A J M N ~ O ",
"  P Q R S A T T U U A S V W ~ X ",
"    Y Z ` ` ` ` ` ` ` `  ...+.@."};
