/* XPM */
static char * saveas_xpm[] = {
"16 16 16 1",
" 	c None",
".	c #86A8DB",
"+	c #96B5E3",
"@	c #7EA1D8",
"#	c #C9D9F1",
"$	c #FFFFFF",
"%	c #ADC7ED",
"&	c #779BD2",
"*	c #ECF4F0",
"=	c #628BCA",
"-	c #6B92CD",
";	c #5782C3",
">	c #3C69AB",
",	c #8EC461",
"'	c #CFF296",
")	c #6D8CD8",
"                ",
" .+.+..++@#     ",
" .#$#$$$$%@     ",
" @%.@.+&&@&&#   ",
" @%&#$%$$**%&   ",
" .%=+-&&@--&&=# ",
" @%=%=%$%$$$$%= ",
" &%&%;%$-$$$*+= ",
" &%&+=%$$$$$$.; ",
" &#-+=+@.@@@@&; ",
" @&;+=+..@@@&&; ",
"   -#;+******&> ",
"   &-;+*,,,,*@> ",
"     ;%$''''$@> ",
"     =;))))))>> ",
"                "};
